<svg width="64" height="64" viewBox="0 0 64 64" fill="none" xmlns="http://www.w3.org/2000/svg">
<g id="person">
<mask id="mask0_3_4094" style="mask-type:alpha" maskUnits="userSpaceOnUse" x="0" y="0" width="64" height="64">
<rect id="Bounding box" width="64" height="64" fill="#D9D9D9"/>
</mask>
<g mask="url(#mask0_3_4094)">
<path id="person_2" d="M31.9998 32C29.0665 32 26.5554 30.9555 24.4665 28.8666C22.3776 26.7777 21.3332 24.2666 21.3332 21.3333C21.3332 18.4 22.3776 15.8888 24.4665 13.8C26.5554 11.7111 29.0665 10.6666 31.9998 10.6666C34.9332 10.6666 37.4443 11.7111 39.5332 13.8C41.6221 15.8888 42.6665 18.4 42.6665 21.3333C42.6665 24.2666 41.6221 26.7777 39.5332 28.8666C37.4443 30.9555 34.9332 32 31.9998 32ZM47.9998 53.3333H15.9998C14.5332 53.3333 13.2776 52.8111 12.2332 51.7666C11.1887 50.7222 10.6665 49.4666 10.6665 48V45.8666C10.6665 44.3555 11.0554 42.9666 11.8332 41.7C12.6109 40.4333 13.6443 39.4666 14.9332 38.8C17.6887 37.4222 20.4887 36.3888 23.3332 35.7C26.1776 35.0111 29.0665 34.6666 31.9998 34.6666C34.9332 34.6666 37.8221 35.0111 40.6665 35.7C43.5109 36.3888 46.311 37.4222 49.0665 38.8C50.3554 39.4666 51.3887 40.4333 52.1665 41.7C52.9443 42.9666 53.3332 44.3555 53.3332 45.8666V48C53.3332 49.4666 52.811 50.7222 51.7665 51.7666C50.7221 52.8111 49.4665 53.3333 47.9998 53.3333ZM15.9998 48H47.9998V45.8666C47.9998 45.3777 47.8776 44.9333 47.6332 44.5333C47.3887 44.1333 47.0665 43.8222 46.6665 43.6C44.2665 42.4 41.8443 41.5 39.3998 40.9C36.9554 40.3 34.4887 40 31.9998 40C29.5109 40 27.0443 40.3 24.5998 40.9C22.1554 41.5 19.7332 42.4 17.3332 43.6C16.9332 43.8222 16.6109 44.1333 16.3665 44.5333C16.1221 44.9333 15.9998 45.3777 15.9998 45.8666V48ZM31.9998 26.6666C33.4665 26.6666 34.7221 26.1444 35.7665 25.1C36.8109 24.0555 37.3332 22.8 37.3332 21.3333C37.3332 19.8666 36.8109 18.6111 35.7665 17.5666C34.7221 16.5222 33.4665 16 31.9998 16C30.5332 16 29.2776 16.5222 28.2332 17.5666C27.1887 18.6111 26.6665 19.8666 26.6665 21.3333C26.6665 22.8 27.1887 24.0555 28.2332 25.1C29.2776 26.1444 30.5332 26.6666 31.9998 26.6666Z" fill="white"/>
</g>
</g>
</svg>
